<?xml version="1.0" encoding="utf-8"?><svg viewBox="0 0 130 64" xmlns="http://www.w3.org/2000/svg" xmlns:xlink="http://www.w3.org/1999/xlink"><style>:root>svg{display:none}:root>svg:target{display:block}</style><svg fill="none" viewBox="0 0 64 64" id="Coprorate" xmlns="http://www.w3.org/2000/svg"><g clip-path="url(#aa)"><path d="M60.526 37.727a5.596 5.596 0 0 0-2.15-.429 5.61 5.61 0 0 0-4.186 1.863l-1.22-.505-3.48-1.441A18.19 18.19 0 0 0 50.25 32c0-1.812-.267-3.562-.76-5.215l3.48-1.442 1.22-.505a5.61 5.61 0 0 0 4.185 1.863 5.632 5.632 0 0 0 5.195-7.779 5.61 5.61 0 0 0-5.198-3.473 5.634 5.634 0 0 0-5.615 5.923l-1.227.509-3.479 1.44a18.382 18.382 0 0 0-7.373-7.373l1.441-3.479.508-1.225a5.61 5.61 0 0 0 5.494-3.465A5.632 5.632 0 0 0 42.926 0a5.61 5.61 0 0 0-5.199 3.473 5.634 5.634 0 0 0 1.436 6.334l-.507 1.223-1.441 3.48A18.196 18.196 0 0 0 32 13.75c-1.811 0-3.562.267-5.215.76l-1.441-3.48-.507-1.223a5.634 5.634 0 0 0 1.436-6.334A5.61 5.61 0 0 0 21.074 0a5.632 5.632 0 0 0-5.195 7.779 5.61 5.61 0 0 0 5.494 3.465l.508 1.226 1.44 3.479a18.38 18.38 0 0 0-7.372 7.373l-3.48-1.441-1.226-.508a5.634 5.634 0 0 0-3.464-5.494 5.595 5.595 0 0 0-2.151-.43 5.61 5.61 0 0 0-5.199 3.474 5.632 5.632 0 0 0 5.196 7.779 5.61 5.61 0 0 0 4.185-1.864l1.22.506 3.48 1.441A18.193 18.193 0 0 0 13.75 32c0 1.812.267 3.562.76 5.215l-3.48 1.441-1.22.505a5.61 5.61 0 0 0-4.185-1.863A5.632 5.632 0 0 0 .43 45.077a5.61 5.61 0 0 0 5.198 3.473c.74 0 1.463-.144 2.15-.429a5.634 5.634 0 0 0 3.464-5.494l1.228-.508 3.479-1.44a18.38 18.38 0 0 0 7.373 7.372l-1.441 3.48-.508 1.225a5.61 5.61 0 0 0-5.494 3.465A5.632 5.632 0 0 0 21.074 64a5.61 5.61 0 0 0 5.198-3.474 5.634 5.634 0 0 0-1.435-6.333l.506-1.223 1.442-3.48c1.653.493 3.403.76 5.215.76 1.811 0 3.562-.267 5.215-.76l1.441 3.48.507 1.223a5.634 5.634 0 0 0-1.436 6.334A5.61 5.61 0 0 0 42.926 64a5.632 5.632 0 0 0 5.195-7.779 5.61 5.61 0 0 0-5.495-3.465l-.507-1.226-1.441-3.479a18.38 18.38 0 0 0 7.373-7.373l3.479 1.441 1.227.508a5.634 5.634 0 0 0 3.464 5.494c.687.285 1.411.43 2.15.43a5.61 5.61 0 0 0 5.2-3.474 5.631 5.631 0 0 0-3.045-7.35ZM32 46.5c-7.995 0-14.5-6.505-14.5-14.5S24.005 17.5 32 17.5 46.5 24.005 46.5 32 39.995 46.5 32 46.5Z" fill="#000"/><path d="M60.526 37.727a5.596 5.596 0 0 0-2.15-.429 5.61 5.61 0 0 0-4.186 1.863l-1.22-.505-3.48-1.441A18.19 18.19 0 0 0 50.25 32c0-1.812-.267-3.562-.76-5.215l3.48-1.442 1.22-.505a5.61 5.61 0 0 0 4.185 1.863 5.632 5.632 0 0 0 5.195-7.779 5.61 5.61 0 0 0-5.198-3.473 5.634 5.634 0 0 0-5.615 5.923l-1.227.509-3.479 1.44a18.382 18.382 0 0 0-7.373-7.373l1.441-3.479.508-1.225a5.61 5.61 0 0 0 5.494-3.465A5.632 5.632 0 0 0 42.926 0a5.61 5.61 0 0 0-5.199 3.473 5.634 5.634 0 0 0 1.436 6.334l-.507 1.223-1.441 3.48A18.196 18.196 0 0 0 32 13.75c-1.811 0-3.562.267-5.215.76l-1.441-3.48-.507-1.223a5.634 5.634 0 0 0 1.436-6.334A5.61 5.61 0 0 0 21.074 0a5.632 5.632 0 0 0-5.195 7.779 5.61 5.61 0 0 0 5.494 3.465l.508 1.226 1.44 3.479a18.38 18.38 0 0 0-7.372 7.373l-3.48-1.441-1.226-.508a5.634 5.634 0 0 0-3.464-5.494 5.595 5.595 0 0 0-2.151-.43 5.61 5.61 0 0 0-5.199 3.474 5.632 5.632 0 0 0 5.196 7.779 5.61 5.61 0 0 0 4.185-1.864l1.22.506 3.48 1.441A18.193 18.193 0 0 0 13.75 32c0 1.812.267 3.562.76 5.215l-3.48 1.441-1.22.505a5.61 5.61 0 0 0-4.185-1.863A5.632 5.632 0 0 0 .43 45.077a5.61 5.61 0 0 0 5.198 3.473c.74 0 1.463-.144 2.15-.429a5.634 5.634 0 0 0 3.464-5.494l1.228-.508 3.479-1.44a18.38 18.38 0 0 0 7.373 7.372l-1.441 3.48-.508 1.225a5.61 5.61 0 0 0-5.494 3.465A5.632 5.632 0 0 0 21.074 64a5.61 5.61 0 0 0 5.198-3.474 5.634 5.634 0 0 0-1.435-6.333l.506-1.223 1.442-3.48c1.653.493 3.403.76 5.215.76 1.811 0 3.562-.267 5.215-.76l1.441 3.48.507 1.223a5.634 5.634 0 0 0-1.436 6.334A5.61 5.61 0 0 0 42.926 64a5.632 5.632 0 0 0 5.195-7.779 5.61 5.61 0 0 0-5.495-3.465l-.507-1.226-1.441-3.479a18.38 18.38 0 0 0 7.373-7.373l3.479 1.441 1.227.508a5.634 5.634 0 0 0 3.464 5.494c.687.285 1.411.43 2.15.43a5.61 5.61 0 0 0 5.2-3.474 5.631 5.631 0 0 0-3.045-7.35ZM32 46.5c-7.995 0-14.5-6.505-14.5-14.5S24.005 17.5 32 17.5 46.5 24.005 46.5 32 39.995 46.5 32 46.5Z" fill="url(#ab)"/><path d="M32 21.25c-5.927 0-10.75 4.823-10.75 10.75 0 5.928 4.823 10.75 10.75 10.75 5.928 0 10.75-4.822 10.75-10.75 0-5.927-4.822-10.75-10.75-10.75Zm1.875 14.875h-3.75v-8.25h3.75v8.25Z" fill="#000"/><path d="M32 21.25c-5.927 0-10.75 4.823-10.75 10.75 0 5.928 4.823 10.75 10.75 10.75 5.928 0 10.75-4.822 10.75-10.75 0-5.927-4.822-10.75-10.75-10.75Zm1.875 14.875h-3.75v-8.25h3.75v8.25Z" fill="url(#ac)"/></g><defs><linearGradient id="ab" x1="32" y1="0" x2="32" y2="64" gradientUnits="userSpaceOnUse"><stop stop-color="#EF8080"/><stop offset="1" stop-color="#F0145A"/></linearGradient><linearGradient id="ac" x1="32" y1="21.25" x2="32" y2="42.75" gradientUnits="userSpaceOnUse"><stop stop-color="#EF8080"/><stop offset="1" stop-color="#F0145A"/></linearGradient><clipPath id="aa"><path fill="#fff" d="M0 0h64v64H0z"/></clipPath></defs></svg><svg fill="none" viewBox="0 0 64 64" id="Court" xmlns="http://www.w3.org/2000/svg"><path d="M40.352 20.389a1.872 1.872 0 0 0 2.65 0l2.608-2.608a1.878 1.878 0 0 0 0-2.651l-6.583-6.581a1.871 1.871 0 0 0-2.648 0l-2.609 2.608a1.875 1.875 0 0 0 0 2.648l6.582 6.584Z" fill="url(#ba)"/><path d="M24.766 36.267a1.876 1.876 0 0 0 2.648 0l2.609-2.61a1.872 1.872 0 0 0 0-2.649l-6.583-6.583a1.874 1.874 0 0 0-2.649 0l-2.608 2.608a1.875 1.875 0 0 0 0 2.65l6.583 6.584Z" fill="url(#bb)"/><path d="m54.648 36.893-2.647-2.65a1.875 1.875 0 0 0-2.648 0l-1.161 1.16-11.205-11.207 2.427-2.428-6.733-6.73-2.428 2.427-3.092 3.09-2.374 2.374 6.732 6.733 2.377-2.373 11.203 11.205-1.048 1.05a1.87 1.87 0 0 0 0 2.647l2.647 2.648a1.87 1.87 0 0 0 2.65 0l5.299-5.297a1.871 1.871 0 0 0 .001-2.649Z" fill="url(#bc)"/><path d="M35.077 44.943a2.173 2.173 0 0 0-2.173-2.173H15.936c-1.2 0-2.173.973-2.173 2.172v3.527H9v7.39h30.558v-7.39h-4.481v-3.526Z" fill="url(#bd)"/><defs><linearGradient id="ba" x1="39.69" y1="8" x2="39.69" y2="20.939" gradientUnits="userSpaceOnUse"><stop stop-color="#EF8080"/><stop offset="1" stop-color="#F0145A"/></linearGradient><linearGradient id="bb" x1="24.103" y1="23.877" x2="24.103" y2="36.814" gradientUnits="userSpaceOnUse"><stop stop-color="#EF8080"/><stop offset="1" stop-color="#F0145A"/></linearGradient><linearGradient id="bc" x1="39.992" y1="15.037" x2="39.992" y2="45.39" gradientUnits="userSpaceOnUse"><stop stop-color="#EF8080"/><stop offset="1" stop-color="#F0145A"/></linearGradient><linearGradient id="bd" x1="24.279" y1="42.77" x2="24.279" y2="55.858" gradientUnits="userSpaceOnUse"><stop stop-color="#EF8080"/><stop offset="1" stop-color="#F0145A"/></linearGradient></defs></svg><svg fill="none" viewBox="0 0 64 64" id="Ecommerce" xmlns="http://www.w3.org/2000/svg"><path d="M23.734 28.125a2 2 0 0 0 2-2v-7.8A6.332 6.332 0 0 1 32.058 12a6.333 6.333 0 0 1 6.325 6.325v7.8a2 2 0 0 0 4 0v-7.8C42.383 12.632 37.752 8 32.058 8c-5.692 0-10.324 4.632-10.324 10.325v7.8a2 2 0 0 0 2 2Z" fill="url(#ca)"/><path d="M55 23.63H44.384v2.495c0 2.206-1.794 4-4 4s-4-1.794-4-4V23.63h-8.649v2.494c0 2.206-1.794 4-4 4s-4-1.794-4-4V23.63H9c-.552 0-.893.435-.762.97L15.236 53.1c.422 1.602 2.108 2.9 3.764 2.9h26c1.658 0 3.342-1.298 3.766-2.9l6.996-28.497c.131-.537-.209-.971-.762-.971Z" fill="url(#cb)"/><path d="M28.6 34.4a1.4 1.4 0 1 1 2.8 0v6.95V40a1.4 1.4 0 1 1 2.8 0v1.676c.013-.762.635-2.376 1.4-2.376a1.4 1.4 0 0 1 1.4 1.4s.041 1.041.133 1.103C37.357 41.33 37.84 40 38.4 40a1.4 1.4 0 0 1 1.4 1.4v7a2.8 2.8 0 0 1-2.8 2.8h-4.68a5.6 5.6 0 0 1-3.96-1.64l-2.21-2.21L23 45.94c.005-1.337 1.053-1.74 2.1-1.74.902 0 1.714.14 3.5 1.05V34.4Z" fill="#fff"/><defs><linearGradient id="ca" x1="32.058" y1="8" x2="32.058" y2="28.125" gradientUnits="userSpaceOnUse"><stop stop-color="#EF8080"/><stop offset="1" stop-color="#F0145A"/></linearGradient><linearGradient id="cb" x1="32" y1="23.631" x2="32" y2="56" gradientUnits="userSpaceOnUse"><stop stop-color="#EF8080"/><stop offset="1" stop-color="#F0145A"/></linearGradient></defs></svg><svg fill="none" viewBox="0 0 130 60" id="Logo" xmlns="http://www.w3.org/2000/svg"><g clip-path="url(#da)"><path d="M4.957 0H0v35.799h4.957V22.518c0-2.247.559-4.02 1.676-5.268 1.118-1.248 2.649-1.897 4.544-1.897 1.628 0 2.989.6 4.082 1.747 1.093 1.174 1.652 2.647 1.652 4.42v14.304h4.981V21.519c0-3.295-.899-5.891-2.697-7.839-1.798-1.947-4.155-2.92-7.022-2.92-.826 0-1.652.1-2.454.324-.826.225-1.482.474-2.017.749-.534.275-1.044.574-1.506.924-.462.35-.778.599-.923.749-.146.15-.268.25-.316.324V0Z" fill="#F0145A"/><path d="M32.973 0h-5.11v35.769h5.11V0ZM63.111 25.294l.256-2.555c0-3.424-1.124-6.286-3.424-8.585-2.3-2.3-5.16-3.424-8.584-3.424-3.424 0-6.388 1.227-8.84 3.68-2.453 2.452-3.68 5.365-3.68 8.84 0 3.576 1.278 6.642 3.782 9.197 2.504 2.555 5.519 3.833 8.993 3.833 1.329 0 2.555-.205 3.782-.562 1.226-.41 2.248-.818 2.963-1.227.767-.46 1.533-.97 2.197-1.533.665-.562 1.125-.97 1.33-1.226.203-.256.357-.409.459-.562l-3.321-3.322-.767.971c-.51.614-1.38 1.227-2.606 1.89-1.277.665-2.606.972-4.037.972-1.992 0-3.679-.613-5.11-1.89-1.43-1.278-2.299-2.76-2.554-4.497H63.11ZM51.36 15.074c1.89 0 3.423.562 4.7 1.635 1.227 1.124 1.994 2.504 2.3 4.241H44.154c.46-1.737 1.277-3.117 2.555-4.241 1.226-1.073 2.81-1.635 4.65-1.635ZM86.943 34.287c0 2.248-.664 4.088-2.044 5.518-1.329 1.38-3.015 2.096-5.11 2.096-.92 0-1.84-.154-2.708-.41-.869-.255-1.533-.561-2.095-.92a11.553 11.553 0 0 1-1.584-1.174l-.92-.92c-.153-.153-.255-.307-.358-.409l-3.321 3.322.409.51c.255.358.715.818 1.328 1.329.613.46 1.329.97 2.146 1.482.818.46 1.84.869 3.117 1.226 1.278.358 2.606.562 3.986.562 3.475 0 6.336-1.175 8.738-3.526 2.35-2.401 3.526-5.263 3.526-8.737V11.242h-5.11v2.554l-.869-.766c-.562-.511-1.43-1.022-2.657-1.533a10.122 10.122 0 0 0-3.883-.767c-3.117 0-5.775 1.176-8.074 3.577-2.3 2.402-3.423 5.263-3.423 8.687 0 3.424 1.124 6.285 3.423 8.687 2.3 2.401 4.957 3.577 8.074 3.577.868 0 1.686-.102 2.554-.307a17.604 17.604 0 0 0 2.044-.766 7.625 7.625 0 0 0 1.533-.92c.46-.358.818-.613.92-.715l.358-.358v2.095ZM73.146 22.994c0-2.146.665-3.934 2.044-5.416 1.38-1.482 3.015-2.249 4.855-2.249 1.84 0 3.474.767 4.854 2.249 1.329 1.482 2.044 3.27 2.044 5.416 0 2.146-.715 3.935-2.044 5.416-1.38 1.482-3.015 2.249-4.854 2.249-1.84 0-3.475-.767-4.855-2.248-1.38-1.482-2.044-3.27-2.044-5.417ZM118.724 35.769v-15.84c0-2.607-.971-4.804-2.861-6.541-1.891-1.789-4.344-2.658-7.359-2.658-1.175 0-2.35.154-3.474.46-1.124.358-2.044.716-2.709 1.125-.664.408-1.328.868-1.941 1.43-.613.511-.971.869-1.175 1.073-.154.205-.307.358-.41.511l3.322 3.322.664-.869c.409-.562 1.125-1.073 2.198-1.635s2.248-.818 3.525-.818c1.482 0 2.709.46 3.679 1.329.971.869 1.431 1.993 1.431 3.27l-8.942 1.533c-2.197.358-3.986 1.227-5.212 2.606-1.277 1.38-1.942 3.066-1.942 5.059 0 1.89.818 3.526 2.453 4.956 1.686 1.482 3.73 2.198 6.234 2.198.869 0 1.686-.102 2.504-.358.868-.204 1.533-.46 2.095-.715a7.628 7.628 0 0 0 1.533-.92c.46-.358.766-.613.971-.715.153-.154.255-.307.306-.358v2.555h5.11Zm-11.753-4.088c-1.328 0-2.401-.307-3.168-.92-.817-.613-1.175-1.328-1.175-2.146 0-.869.256-1.635.818-2.197.562-.562 1.328-.971 2.248-1.124l7.92-1.278v.511c0 2.3-.562 4.037-1.737 5.314-1.175 1.227-2.811 1.84-4.906 1.84ZM130 0h-5.11v35.769H130V0ZM0 53.118h1.6v5.607h3.464v1.303H0v-6.91ZM15.502 58.548h-3.209l-.612 1.48h-1.638l3.08-6.91h1.579l3.09 6.91h-1.678l-.612-1.48Zm-.504-1.215-1.095-2.645-1.096 2.645h2.191ZM33.512 53.118l-2.26 6.91h-1.718l-1.52-4.679-1.57 4.68h-1.707l-2.27-6.91h1.658l1.56 4.856 1.628-4.857h1.48l1.58 4.897 1.61-4.897h1.53ZM50.523 60.147a4.033 4.033 0 0 1-1.915-.454 3.518 3.518 0 0 1-1.342-1.274 3.562 3.562 0 0 1-.484-1.846c0-.684.161-1.296.484-1.836.329-.546.776-.97 1.342-1.273.573-.31 1.214-.464 1.925-.464.599 0 1.139.105 1.619.316.487.21.895.513 1.224.908l-1.027.948c-.467-.54-1.046-.81-1.737-.81-.428 0-.81.096-1.145.286a2 2 0 0 0-.79.78 2.34 2.34 0 0 0-.276 1.145c0 .428.092.81.276 1.145.191.336.454.6.79.79a2.34 2.34 0 0 0 1.145.277c.691 0 1.27-.273 1.737-.82l1.027.948a3.2 3.2 0 0 1-1.224.918c-.487.21-1.03.316-1.629.316ZM62.593 60.147c-.717 0-1.365-.155-1.944-.464a3.5 3.5 0 0 1-1.353-1.273 3.543 3.543 0 0 1-.483-1.837c0-.677.16-1.286.483-1.826.33-.546.78-.974 1.353-1.283.579-.31 1.227-.464 1.944-.464.718 0 1.362.155 1.935.464a3.476 3.476 0 0 1 1.846 3.11c0 .677-.164 1.29-.494 1.836a3.5 3.5 0 0 1-1.352 1.273c-.573.31-1.217.464-1.935.464Zm0-1.362c.408 0 .777-.093 1.106-.277a2.02 2.02 0 0 0 .77-.79c.19-.335.286-.717.286-1.145 0-.427-.095-.809-.286-1.145a1.951 1.951 0 0 0-.77-.78 2.164 2.164 0 0 0-1.106-.286c-.408 0-.776.096-1.105.286a2.019 2.019 0 0 0-.78.78 2.34 2.34 0 0 0-.276 1.145c0 .428.092.81.276 1.145.19.336.45.6.78.79.329.184.697.277 1.105.277ZM78.8 60.028l-.01-4.146-2.034 3.416h-.72l-2.024-3.327v4.057h-1.5v-6.91h1.322l2.587 4.294 2.546-4.294h1.313l.02 6.91h-1.5ZM89.866 53.118c.612 0 1.142.102 1.59.306.453.205.802.494 1.046.87.243.374.365.819.365 1.332 0 .507-.122.95-.365 1.332-.244.376-.593.665-1.047.87-.447.197-.977.295-1.59.295h-1.39v1.905h-1.6v-6.91h2.99Zm-.089 3.702c.48 0 .846-.102 1.096-.306.25-.21.375-.507.375-.888 0-.389-.125-.685-.375-.889-.25-.21-.616-.316-1.096-.316h-1.303v2.4h1.303ZM103.148 58.548H99.94l-.612 1.48h-1.64l3.081-6.91h1.579l3.09 6.91h-1.678l-.612-1.48Zm-.504-1.215-1.095-2.645-1.096 2.645h2.191ZM117.428 53.118v6.91h-1.313l-3.445-4.195v4.195h-1.58v-6.91h1.323l3.435 4.196v-4.196h1.58ZM127.315 57.58v2.448h-1.599V57.56l-2.675-4.442h1.698l1.846 3.07 1.845-3.07H130l-2.685 4.462Z" fill="#fff"/></g><defs><clipPath id="da"><path fill="#fff" d="M0 0h130v60H0z"/></clipPath></defs></svg><svg fill="none" viewBox="0 0 64 64" id="Protection" xmlns="http://www.w3.org/2000/svg"><path d="M41.232 37.696c2.352 0 4.678.588 6.726 1.701.372.2.713.44 1.061.67 3.362-6.58 5.136-13.54 5.136-20.328 0-.382 0-.776-.013-1.17a1.244 1.244 0 0 0-.972-1.156c-7.434-1.625-14.166-5.65-19.459-11.631l-.787-.899A1.207 1.207 0 0 0 32 4.465c-.382-.05-.677.135-.911.394l-1.206 1.33c-5.022 5.525-11.348 9.34-18.29 11.04l-.8.196a1.21 1.21 0 0 0-.935 1.157c-.443 17.304 9.772 29.748 14.179 34.301a41.698 41.698 0 0 0 3.787 3.449 14.227 14.227 0 0 1-.747-4.482c0-7.805 6.349-14.154 14.154-14.154Z" fill="url(#ea)"/><path d="M46.782 41.561a11.653 11.653 0 0 0-5.55-1.403c-6.45 0-11.693 5.243-11.693 11.692 0 2.179.59 4.308 1.723 6.13 2.154 3.483 5.871 5.563 9.97 5.563 6.436 0 11.692-5.243 11.692-11.693 0-4.307-2.351-8.246-6.142-10.289Zm.438 8.733-9.145 7.116-3.122-4.883a1.23 1.23 0 1 1 2.073-1.326l1.668 2.608 7.014-5.458a1.23 1.23 0 1 1 1.512 1.943Z" fill="url(#eb)"/><defs><linearGradient id="ea" x1="32" y1="4.457" x2="32" y2="56.332" gradientUnits="userSpaceOnUse"><stop stop-color="#EF8080"/><stop offset="1" stop-color="#F0145A"/></linearGradient><linearGradient id="eb" x1="41.231" y1="40.158" x2="41.231" y2="63.543" gradientUnits="userSpaceOnUse"><stop stop-color="#EF8080"/><stop offset="1" stop-color="#F0145A"/></linearGradient></defs></svg><svg fill="none" viewBox="0 0 64 64" id="Support" xmlns="http://www.w3.org/2000/svg"><path fill-rule="evenodd" clip-rule="evenodd" d="M53.451 35.076v17.295c0 3.094-2.424 5.629-5.388 5.629H15.97c-2.964 0-5.388-2.535-5.388-5.629V35.076h16.666v7.511l4.769 3.133 4.768-3.133v-7.51h16.666Z" fill="url(#fa)"/><path fill-rule="evenodd" clip-rule="evenodd" d="M28.919 35.076v6.609l3.098 2.035 3.098-2.035v-6.609h-6.197Z" fill="url(#fb)"/><path fill-rule="evenodd" clip-rule="evenodd" d="M12.073 15.143H51.96c1.882 0 3.42 1.708 3.42 3.795v10.253c0 2.088-1.538 3.796-3.42 3.796H12.073c-1.882 0-3.42-1.708-3.42-3.796V18.938c0-2.087 1.538-3.795 3.42-3.795Z" fill="url(#fc)"/><path fill-rule="evenodd" clip-rule="evenodd" d="M23.712 5.955h16.61a2.814 2.814 0 0 1 2.805 2.806v4.377H39.57v-2.586c0-.698-.57-1.27-1.268-1.27H25.731c-.697 0-1.268.572-1.268 1.27v2.586h-3.557V8.761a2.814 2.814 0 0 1 2.806-2.806Z" fill="url(#fd)"/><defs><linearGradient id="fa" x1="32.017" y1="35.076" x2="32.017" y2="58" gradientUnits="userSpaceOnUse"><stop stop-color="#EF8080"/><stop offset="1" stop-color="#F0145A"/></linearGradient><linearGradient id="fb" x1="32.017" y1="35.076" x2="32.017" y2="43.72" gradientUnits="userSpaceOnUse"><stop stop-color="#EF8080"/><stop offset="1" stop-color="#F0145A"/></linearGradient><linearGradient id="fc" x1="32.017" y1="15.143" x2="32.017" y2="32.987" gradientUnits="userSpaceOnUse"><stop stop-color="#EF8080"/><stop offset="1" stop-color="#F0145A"/></linearGradient><linearGradient id="fd" x1="32.017" y1="5.955" x2="32.017" y2="13.138" gradientUnits="userSpaceOnUse"><stop stop-color="#EF8080"/><stop offset="1" stop-color="#F0145A"/></linearGradient></defs></svg><svg fill="none" viewBox="0 0 64 64" id="Trust" xmlns="http://www.w3.org/2000/svg"><path d="M42.006 56h-19v6h19v-6Z" fill="#000"/><path d="M42.006 56h-19v6h19v-6Z" fill="url(#ga)"/><path d="M15.173 2.452 1.738 15.887l3.535 3.535L18.708 5.987l-3.535-3.535Z" fill="#000"/><path d="M15.173 2.452 1.738 15.887l3.535 3.535L18.708 5.987l-3.535-3.535Z" fill="url(#gb)"/><path d="m49.113 2.322-3.536 3.535 13.435 13.435 3.536-3.535L49.113 2.322Z" fill="#000"/><path d="m49.113 2.322-3.536 3.535 13.435 13.435 3.536-3.535L49.113 2.322Z" fill="url(#gc)"/><path d="m44.556 9.706-2.691-.114a5.057 5.057 0 0 0-4.283 1.432l-5.505 5.505-5.753-5.754a3.84 3.84 0 0 0-3.858-.909 3.618 3.618 0 0 1-3.611-.903l-.854-.854L7.394 18.716l1.728 1.728-.114 2.69a5.058 5.058 0 0 0 1.432 4.284l9.612 9.612a4.985 4.985 0 0 1 1.691-3.258l-2.995-2.995.707-.707 3.129 3.128a4.947 4.947 0 0 1 1.422-.54v-3.695l-1.722-1.722.707-.707 1.015 1.015v-5.35a3.61 3.61 0 0 1 3.142-3.625c.331-.032.665-.017.991.045l-1.23-1.23.708-.707 1.796 1.797a3.541 3.541 0 0 1 3.403-1.909 3.6 3.6 0 0 1 3.175 3.332 3.557 3.557 0 0 1 1.825-.332 3.62 3.62 0 0 1 3.19 3.663v3.424a5.004 5.004 0 0 1 3.816 3.625l2.788-2.788.708.707-3.316 3.315c0 .014.004.027.004.04v3.32a3.963 3.963 0 0 0 2.379-1.128l6.84-6.84a3.839 3.839 0 0 0 .909-3.858 3.618 3.618 0 0 1 .903-3.611l.854-.854L46.284 7.98l-1.728 1.727Z" fill="#000"/><path d="m44.556 9.706-2.691-.114a5.057 5.057 0 0 0-4.283 1.432l-5.505 5.505-5.753-5.754a3.84 3.84 0 0 0-3.858-.909 3.618 3.618 0 0 1-3.611-.903l-.854-.854L7.394 18.716l1.728 1.728-.114 2.69a5.058 5.058 0 0 0 1.432 4.284l9.612 9.612a4.985 4.985 0 0 1 1.691-3.258l-2.995-2.995.707-.707 3.129 3.128a4.947 4.947 0 0 1 1.422-.54v-3.695l-1.722-1.722.707-.707 1.015 1.015v-5.35a3.61 3.61 0 0 1 3.142-3.625c.331-.032.665-.017.991.045l-1.23-1.23.708-.707 1.796 1.797a3.541 3.541 0 0 1 3.403-1.909 3.6 3.6 0 0 1 3.175 3.332 3.557 3.557 0 0 1 1.825-.332 3.62 3.62 0 0 1 3.19 3.663v3.424a5.004 5.004 0 0 1 3.816 3.625l2.788-2.788.708.707-3.316 3.315c0 .014.004.027.004.04v3.32a3.963 3.963 0 0 0 2.379-1.128l6.84-6.84a3.839 3.839 0 0 0 .909-3.858 3.618 3.618 0 0 1 .903-3.611l.854-.854L46.284 7.98l-1.728 1.727Z" fill="url(#gd)"/><path d="M29.88 21.69a2.49 2.49 0 0 0-2.725-2.189 2.598 2.598 0 0 0-2.243 2.63V33.49a4 4 0 0 0-4 4v9.673a3.838 3.838 0 0 0 2.086 3.37 3.618 3.618 0 0 1 1.914 3.193v1.207h15v-2.444l1.984-1.822a5.059 5.059 0 0 0 2.016-4.04V31.488a4 4 0 0 0-4-4v-4.323a2.622 2.622 0 0 0-2.276-2.668 2.492 2.492 0 0 0-2.682 2.1h.458V38.04h-1V22.597h.5v-2.431a2.622 2.622 0 0 0-2.276-2.668 2.502 2.502 0 0 0-2.724 2.49v1.702h.5v15.443h-1V21.69h.468Zm-4.569 20.35h-1v-8h1v8ZM39.413 27.8h1v10.443h-1V27.8Z" fill="#000"/><path d="M29.88 21.69a2.49 2.49 0 0 0-2.725-2.189 2.598 2.598 0 0 0-2.243 2.63V33.49a4 4 0 0 0-4 4v9.673a3.838 3.838 0 0 0 2.086 3.37 3.618 3.618 0 0 1 1.914 3.193v1.207h15v-2.444l1.984-1.822a5.059 5.059 0 0 0 2.016-4.04V31.488a4 4 0 0 0-4-4v-4.323a2.622 2.622 0 0 0-2.276-2.668 2.492 2.492 0 0 0-2.682 2.1h.458V38.04h-1V22.597h.5v-2.431a2.622 2.622 0 0 0-2.276-2.668 2.502 2.502 0 0 0-2.724 2.49v1.702h.5v15.443h-1V21.69h.468Zm-4.569 20.35h-1v-8h1v8ZM39.413 27.8h1v10.443h-1V27.8Z" fill="url(#ge)"/><defs><linearGradient id="ga" x1="32.506" y1="56" x2="32.506" y2="62" gradientUnits="userSpaceOnUse"><stop stop-color="#EF8080"/><stop offset="1" stop-color="#F0145A"/></linearGradient><linearGradient id="gb" x1="8.455" y1="9.169" x2="11.991" y2="12.705" gradientUnits="userSpaceOnUse"><stop stop-color="#EF8080"/><stop offset="1" stop-color="#F0145A"/></linearGradient><linearGradient id="gc" x1="47.345" y1="4.09" x2="60.78" y2="17.525" gradientUnits="userSpaceOnUse"><stop stop-color="#EF8080"/><stop offset="1" stop-color="#F0145A"/></linearGradient><linearGradient id="gd" x1="32.143" y1="7.979" x2="32.143" y2="37.03" gradientUnits="userSpaceOnUse"><stop stop-color="#EF8080"/><stop offset="1" stop-color="#F0145A"/></linearGradient><linearGradient id="ge" x1="32.412" y1="17.488" x2="32.412" y2="54.932" gradientUnits="userSpaceOnUse"><stop stop-color="#EF8080"/><stop offset="1" stop-color="#F0145A"/></linearGradient></defs></svg></svg>